<?xml version="1.0" encoding="utf-8" ?>
<svg xmlns="http://www.w3.org/2000/svg" xmlns:xlink="http://www.w3.org/1999/xlink" width="1024" height="1024">
    <path fill="#363936" transform="scale(2 2)" d="M218.411 66.3605C237.091 79.2467 254.18 86.6398 276.361 91.5587C285.502 93.5857 294.824 94.8166 303.747 97.7416C353.892 114.18 372.191 161.383 376.622 209.361C392.766 196.434 409.296 186.713 428.403 178.775C427.552 174.349 422.267 161.509 427.07 160.348C432.322 159.078 435.361 176.569 435.675 179.309C436.103 183.043 431.716 185.448 429.372 187.793C402.274 214.895 409.436 258.989 384.408 286.827C382.818 288.595 381.021 290.219 379.5 292.037C381.993 304.651 394.017 329.385 410.088 326.083C412.213 325.647 414.183 324.163 416.323 323.543C428.201 328.825 411.748 333.655 407.746 334.884C396.339 338.39 389.231 337.818 377.698 336.445C381.116 340.493 385.53 344.392 390.699 345.965C393.574 346.84 401.468 349.376 395.232 353.523C389.232 357.513 362.038 349.608 354.705 346.132C350.688 344.228 346.878 341.899 342.895 339.934C333.253 363.931 318.046 374 300.383 389.815C335.055 400.628 348.579 413.012 369.506 439.807L360.514 439.807L150.117 439.807C147.278 439.738 144.463 439.71 141.623 439.807C147.697 424.128 182.801 402.088 197.297 395.692C201.594 393.796 206.509 392.213 210.504 389.815C192.68 376.544 178.926 360.158 169.976 339.934C155.754 347.686 140.987 353.84 124.574 354.772C114.275 355.357 108.866 351.632 121.208 346.832C126.452 344.792 130.606 340.911 133.89 336.445C130.198 337.24 126.555 338.031 122.758 338.065C118.723 338.101 88.1748 334.249 93.8638 325.681C95.7362 322.861 100.876 325.218 103.391 325.549C118.686 327.557 129.381 305.696 132.991 293.895C101.848 264.205 112.716 223.946 86.5983 191.195C84.6503 188.753 77.2768 183.119 77.2439 180.269C77.2067 177.051 80.3052 159.982 84.6438 160.152C91.0092 160.402 84.9632 174.734 84.3507 178.775C103.467 186.201 120.031 196.977 135.398 210.441C141.22 156.849 162.08 113.673 217.581 101.354C221.939 100.386 226.56 100.068 230.841 98.8731C224.728 87.954 220.75 78.7194 218.411 66.3605Z"/>
    <path fill="#B8B8B7" transform="scale(2 2)" d="M373.072 297.7C373.607 297.811 374.732 302.055 374.975 302.776C378.922 314.481 385.997 323.812 396.531 330.263C377.192 331.127 377.301 326.271 363.789 322.932L363.346 322.825C365.565 328.142 367.807 333.266 370.742 338.236C372.71 341.245 374.977 343.733 377.698 346.076C366.06 344.179 356.062 339.467 345.957 333.587C349.314 322.566 352.106 314.972 353.858 302.968C361.62 302.993 366.421 301.51 373.072 297.7Z"/>
    <path fill="#B8B8B7" transform="scale(2 2)" d="M139.531 297.7C145.552 302.085 153.276 303.369 160.51 304.038C161.598 313.602 165.209 324.168 167.662 333.587C162.657 335.441 158.172 338.626 153.196 340.663C146.849 343.262 139.722 344.904 133.89 347.436C135.917 345.297 137.787 342.833 139.531 340.46C140.753 338.667 150.601 324.599 144.688 323.667C139.498 322.849 134.956 333.619 114.394 330.263C128.871 321.98 133.222 313.158 139.531 297.7Z"/>
    <path fill="#466634" transform="scale(2 2)" d="M417.478 190.972L417.782 191.049C417.691 192.224 414.799 196.404 414.07 197.667C411.168 202.699 408.488 207.83 406.281 213.209C396.44 237.206 390.026 294.303 355.742 296.371C354.859 295.672 358.477 263.104 358.728 258.067C359.518 242.172 354.998 242.156 365.377 230.484C379.48 214.624 398.021 199.931 417.478 190.972Z"/>
    <path fill="#363936" transform="scale(2 2)" d="M398.081 214.728C398.478 214.713 398.858 214.753 399.252 214.786L399.507 215.22C398.94 218.809 380.848 234.743 377.008 241.811C372.835 249.491 380.108 266.904 365.304 270.277C362.486 270.311 366.037 261.3 366.318 257.759C367.442 243.611 363.265 247.331 372.641 235.639C379.699 226.838 387.012 218.401 398.081 214.728Z"/>
    <path fill="#466634" transform="scale(2 2)" d="M94.3781 190.972C108.273 192.891 139.488 222.476 147.785 233.569C152.881 240.382 152.915 242.137 153.689 250.485C155.224 267.033 156.652 281.167 159.286 297.7C143.187 295.764 129.65 284.347 122.963 269.897C111.56 245.256 112.845 214.82 94.3781 190.972Z"/>
    <path fill="#363936" transform="scale(2 2)" d="M108.796 213.66C120.145 215.056 137.553 231.975 142.212 242.401C142.62 243.315 147.989 270.83 147.828 271.257C137.338 276.233 137.704 252.092 135.958 246.711C132.75 236.821 116.438 224.884 108.796 213.66Z"/>
    <path fill="#757270" transform="scale(2 2)" d="M294.33 395.252C316.763 400.027 340.881 415.264 355.235 432.673C356.93 434.73 359.75 437.217 360.514 439.807L150.117 439.807C163.796 419.103 194.528 403.731 216.74 395.252C243.99 413.871 257.068 421.244 285.544 401.328C288.43 399.309 291.293 397.03 294.33 395.252Z"/>
    <path fill="#B8B8B7" transform="scale(2 2)" d="M230.841 82.8478C234.031 83.867 237.273 86.1533 240.354 87.5869C256.561 95.1261 273.421 97.9219 290.705 101.823C336.806 112.229 359.996 147.555 367.59 192.401C368.892 200.087 369.921 208.267 369.506 216.064C364.936 220.069 360.994 224.653 357.222 229.4C348.87 211.14 322.442 162.465 304.077 153.26C299.973 155.06 297.944 158.612 295.307 162.082C285.008 175.628 271.717 192.84 256.738 200.479C251.87 197.916 247.482 194.695 243.44 190.972C228.873 180.915 221.487 164.181 209.631 153.26C188.004 164.384 161.955 210.33 154.982 232.328C151.47 226.394 146.229 221.189 141.623 216.064C143.463 184.826 154.843 148.33 178.769 127.469C195.846 112.58 213.906 108.957 235.533 105.786C237.872 109.296 250.736 123.985 255.681 122.272C263.177 119.676 251.05 112.145 249.148 110.367C240.97 102.726 234.813 93.2977 230.841 82.8478Z"/>
    <path fill="#759859" transform="scale(2 2)" d="M304.077 162.498C318.597 172.424 335.931 202.562 344.103 217.83C351.869 232.342 351.704 233.191 351.752 249.237C351.861 286.18 346.394 332.277 321.059 361.234C318.511 364.145 315.598 366.794 313.309 369.916L313.041 370.285C309.438 372.387 306.234 376.082 303.024 378.779C290.111 389.627 268.446 408.661 251.221 406.029C232.238 403.128 198.5 372.042 187.195 356.708C169.508 332.718 163.015 285.66 161.176 256.552C159.758 234.116 160.155 233.107 171.083 211.898C178.896 196.732 194.721 172.377 208.565 162.498C210.557 163.786 216.842 172.866 218.849 175.385C225.879 184.205 247.889 207.866 256.591 207.822C265.152 207.778 289.888 180.004 295.143 173.555C298.03 170.012 300.701 166.098 303.817 162.773L304.077 162.498Z"/>
    <path fill="#363936" transform="scale(2 2)" d="M273.635 364.948C275.45 364.658 271.977 368.424 271.711 368.721C263.65 377.728 248.361 378.379 239.366 370.285C237.809 368.748 236.937 366.994 236.273 364.948C254.016 366.513 251.218 372.395 273.635 364.948Z"/>
    <path fill="#363936" transform="scale(2 2)" d="M313.897 207.245C320.534 207.636 327.356 207.88 333.584 210.441C313.586 212.349 301.553 220.517 286.264 232.328C282.328 235.408 278.708 238.336 275.622 242.321C276.723 235.517 276.096 233.535 280.325 227.451C288.17 216.162 300.57 209.585 313.897 207.245Z"/>
    <path fill="#363936" transform="scale(2 2)" d="M192.985 207.245C211.575 206.107 236.099 221.957 236.273 242.321C233.655 238.626 230.496 235.804 226.967 233.018C210.875 220.449 194.56 210.815 173.797 211.777C180.274 209.325 185.994 207.344 192.985 207.245Z"/>
    <path fill="#363936" transform="scale(2 2)" d="M300.383 317.853C320.727 317.781 326.566 327.81 322.188 347.436L321.798 347.651C321.728 347.594 316.929 336.803 315.803 334.952C313.736 336.775 311.886 338.848 309.854 340.715C282.044 366.262 221.535 363.342 195.539 334.952C192.828 340.191 190.863 345.35 190.631 351.298C183.756 332.466 187.739 319.058 208.565 317.853L211.412 317.853C206.553 320.507 201.461 323.174 198.538 328.085C223.631 356.005 274.585 359.468 303.653 337.179C307.135 334.509 310.053 331.274 313.041 328.085C309.461 323.437 305.547 320.523 300.383 317.853Z"/>
    <path fill="#363936" transform="scale(2 2)" d="M325.489 233.018C327.713 232.89 330.3 233.773 329.714 236.61C328.999 240.075 321.961 241.712 318.91 243.708C328.034 248.697 329.616 263.229 325.95 271.869C317.253 292.369 290.947 289.984 282.264 267.655C282.064 264.974 282.231 262.212 282.264 259.522C275.492 260.377 269.583 259.025 266.297 252.372C264.399 248.529 262.887 237.329 269.084 240.831C274.421 243.847 265.411 259.986 291.276 248.614C302.626 243.623 313.695 236.879 325.489 233.018Z"/>
    <path fill="#F3A50D" transform="scale(2 2)" d="M310.97 247.207C313.583 246.625 317.267 251.302 318.47 253.21C326.525 265.991 314.926 281.818 300.383 277.879C290.785 274.504 287.778 266.466 289.448 256.825C296.52 253.898 304.297 249.681 310.97 247.207Z"/>
    <path fill="#363936" transform="scale(2 2)" d="M184.113 234.78C197.078 234.027 223.494 253.162 234.914 252.981C241.181 252.881 241.198 233.85 247.4 242.229C250.167 245.967 244.595 255.817 241.634 258.022C238.582 260.296 233.018 260.037 229.456 259.522C229.678 262.267 229.667 264.907 229.456 267.655C217.554 296.108 185.4 287.33 183.776 263.61C183.226 255.572 186.942 249.542 192.055 243.708C187.268 241.601 183.523 240.13 178.188 240.293C179.638 237.436 181.099 235.873 184.113 234.78Z"/>
    <path fill="#F3A50D" transform="scale(2 2)" d="M200.694 247.207C207.411 250.731 216.069 252.733 222.327 256.825C224.558 266.207 219.725 272.695 212.214 277.879C190.643 281.392 182.478 257.122 200.694 247.207Z"/>
    <path fill="#363936" transform="scale(2 2)" d="M255.178 267.655C274.48 263.169 311.808 295.108 277.86 310.83C275.144 322.508 270.259 328.508 257.582 329.692C245.921 329.776 235.047 323.518 235.533 310.83C205.049 299.753 227.371 267.734 255.178 267.655Z"/>
    <path fill="#FE0100" transform="scale(2 2)" d="M252.348 274.074C263.483 272.661 276.866 278.199 282.652 287.968C289.246 299.102 279.373 301.849 272.649 306.019C268.609 314.25 270.779 319.558 259.788 322.825C257.197 323.398 254.592 323.201 252.049 322.497C240.869 319.406 244.171 312.502 240.22 306.019C234.734 301.612 221.843 298.607 230.25 286.793C235.221 279.808 244.043 275.433 252.348 274.074Z"/>
</svg>
